<?xml version="1.0" standalone="no"?>
<!DOCTYPE svg PUBLIC "-//W3C//DTD SVG 20010904//EN"
 "http://www.w3.org/TR/2001/REC-SVG-20010904/DTD/svg10.dtd">
<svg version="1.0" xmlns="http://www.w3.org/2000/svg"
 width="1457.000000pt" height="1457.000000pt" viewBox="0 0 1457.000000 1457.000000"
 preserveAspectRatio="xMidYMid meet">

<g transform="translate(0.000000,1457.000000) scale(0.100000,-0.100000)"
fill="#000000" stroke="none">
<path d="M7230 13559 c-674 -37 -1522 -403 -2197 -946 l-22 -18 196 -205 c187
-195 164 -176 -118 98 l-96 94 -109 -93 c-327 -279 -727 -716 -1004 -1098
-1150 -1585 -1618 -3590 -1295 -5536 222 -1333 812 -2594 1673 -3578 633 -724
1358 -1244 2130 -1528 975 -360 1968 -269 2860 260 653 387 1168 1012 1471
1786 125 319 203 625 248 970 24 193 24 662 0 850 -76 574 -259 1099 -556
1598 -233 391 -411 600 -1056 1242 -459 457 -566 569 -712 745 -350 422 -579
874 -668 1313 l-22 108 -409 417 -409 417 405 -397 c222 -218 405 -396 406
-395 1 1 -3 34 -8 72 -5 39 -10 156 -10 260 -1 205 14 350 58 558 24 118 49
196 279 862 201 583 305 995 305 1202 0 45 4 54 39 89 77 74 145 113 416 237
190 87 414 149 660 182 161 22 462 22 615 0 63 -9 155 -18 203 -21 98 -4 163
-19 282 -64 88 -33 104 -37 64 -15 -48 26 -254 102 -431 160 -669 218 -1328
294 -2063 239 l-220 -17 -100 38 c-255 96 -502 131 -805 114z m1110 -403 c0
-35 -183 -99 -533 -187 -270 -67 -617 -180 -807 -260 -171 -72 -551 -263 -685
-344 -557 -336 -1060 -773 -1499 -1304 -246 -298 -526 -726 -756 -1156 -29
-55 -64 -116 -78 -135 l-24 -35 6 35 c15 80 200 514 303 709 320 608 750 1157
1233 1577 425 369 833 621 1330 819 432 173 983 289 1398 294 91 1 112 -2 112
-13z m367 -8353 c21 -39 26 -40 65 -12 16 12 30 20 32 18 2 -2 16 -26 31 -52
27 -46 28 -47 51 -32 13 8 27 15 32 15 5 0 21 -27 36 -60 15 -33 29 -60 32
-60 3 0 16 7 29 16 23 15 24 15 38 -18 8 -18 19 -50 26 -70 l13 -38 44 31 c24
16 49 27 54 24 5 -3 14 -24 20 -47 21 -76 30 -92 42 -80 24 24 36 10 53 -58
17 -68 17 -69 40 -54 22 14 22 14 35 -63 7 -43 16 -82 21 -87 4 -5 21 1 38 13
38 27 51 21 51 -25 0 -37 2 -39 31 -24 17 10 19 7 19 -30 0 -38 1 -40 20 -30
25 14 27 10 34 -99 3 -46 8 -86 11 -89 2 -3 11 1 20 8 13 11 15 2 15 -73 0
-76 2 -86 17 -80 15 6 16 -3 10 -95 -3 -56 -3 -102 1 -102 4 0 18 9 32 20 14
11 28 20 32 20 7 0 2 -47 -17 -157 -12 -73 -10 -84 13 -61 9 9 12 9 12 -2 0
-18 -45 -206 -56 -235 -7 -18 -6 -19 9 -6 10 8 20 12 22 9 10 -10 -37 -125
-89 -220 -30 -54 -50 -96 -45 -92 5 3 9 3 9 0 0 -22 -250 -399 -334 -502 -132
-165 -375 -372 -596 -509 -155 -96 -523 -248 -632 -260 -29 -4 -107 -17 -173
-30 -93 -18 -134 -22 -180 -16 -45 6 -55 10 -41 16 19 8 19 9 0 16 -10 4 -32
8 -49 8 -16 1 -70 8 -118 17 -76 14 -85 18 -70 29 16 12 13 14 -27 25 -25 6
-78 20 -117 32 -64 18 -71 22 -55 34 16 12 15 13 -8 22 -14 4 -60 21 -103 36
l-78 28 37 25 36 25 -91 40 c-75 33 -89 43 -80 54 14 18 18 15 -61 54 -56 29
-62 34 -47 45 15 11 6 19 -73 65 -81 46 -89 53 -73 65 16 12 15 14 -15 32 -28
18 -30 21 -16 35 14 14 12 18 -22 38 -40 25 -41 23 21 64 18 12 14 16 -54 62
-71 47 -72 49 -52 63 21 13 19 15 -40 59 -60 45 -61 46 -40 61 21 16 21 17
-28 54 -77 59 -78 60 -25 94 l46 30 -57 49 -56 49 25 20 26 21 -50 49 -51 50
28 22 28 22 -43 44 -42 43 28 17 c61 37 61 32 3 91 l-53 54 138 92 c77 51 143
96 148 101 6 5 0 19 -14 34 -13 14 -22 27 -19 29 2 2 420 281 929 619 l924
617 27 -26 27 -26 133 90 134 90 22 -27 c12 -14 30 -41 40 -58z"/>
</g>
</svg>
